# xmcd
#
# Track frame offsets: 
#        150
#        19366
#        36521
#        52519
#        68887
#        82362
#        98927
#        115663
#        133954
#        147689
#        167468
#        181704
#        197630
#        216168
#        229083
#
# Disc length: 3247 seconds
#
# Revision: 6
# Processed by: cddbd v1.5.2PL0 Copyright (c) Steve Scherf et al.
# Submitted via: ExactAudioCopy v0.99pb5
#
DISCID=da0cad0f
DTITLE=Intocable - Sueños
DYEAR=2002
DGENRE=Latin
TTITLE0=Sueña
TTITLE1=Vuelve
TTITLE2=Te Sigo Amando
TTITLE3=Jamas Te Dije
TTITLE4=Muy A Tu Manera
TTITLE5=Alguien Como Tu
TTITLE6=Desolacion
TTITLE7=Mas Debil Que Tu
TTITLE8=El Poder De Tus Manos
TTITLE9=Si Te Vas
TTITLE10=En Que Fallamos?
TTITLE11=Nada Es Igual
TTITLE12=Voy A Extrañarte
TTITLE13=Mas Que Un Sueño
TTITLE14=Como Te Extraño!
EXTD=YEAR: 2002
EXTT0=
EXTT1=
EXTT2=
EXTT3=
EXTT4=
EXTT5=
EXTT6=
EXTT7=
EXTT8=
EXTT9=
EXTT10=
EXTT11=
EXTT12=
EXTT13=
EXTT14=
PLAYORDER=
